<?xml version="1.0" encoding="UTF-8" standalone="no"?>
<!DOCTYPE svg PUBLIC "-//W3C//DTD SVG 1.1//EN"
 "http://www.w3.org/Graphics/SVG/1.1/DTD/svg11.dtd">
<!-- Generated by graphviz version 2.50.0 (0)
 -->
<!-- Title: G Pages: 1 -->
<svg width="861pt" height="305pt"
 viewBox="0.00 0.00 861.39 305.00" xmlns="http://www.w3.org/2000/svg" xmlns:xlink="http://www.w3.org/1999/xlink">
<g id="graph0" class="graph" transform="scale(1 1) rotate(0) translate(4 301)">
<title>G</title>
<polygon fill="white" stroke="transparent" points="-4,4 -4,-301 857.39,-301 857.39,4 -4,4"/>
<!-- United States -->
<g id="node1" class="node">
<title>United States</title>
<ellipse fill="none" stroke="black" cx="75.39" cy="-279" rx="75.29" ry="18"/>
<text text-anchor="middle" x="75.39" y="-275.3" font-family="Times,serif" font-size="14.00">United States</text>
</g>
<!-- FuelCycle -->
<g id="node2" class="node">
<title>FuelCycle</title>
<ellipse fill="none" stroke="black" cx="225.39" cy="-279" rx="56.59" ry="18"/>
<text text-anchor="middle" x="225.39" y="-275.3" font-family="Times,serif" font-size="14.00">FuelCycle</text>
</g>
<!-- Mine -->
<g id="node3" class="node">
<title>Mine</title>
<ellipse fill="none" stroke="black" cx="334.39" cy="-279" rx="34.39" ry="18"/>
<text text-anchor="middle" x="334.39" y="-275.3" font-family="Times,serif" font-size="14.00">Mine</text>
</g>
<!-- Enrichment -->
<g id="node5" class="node">
<title>Enrichment</title>
<ellipse fill="none" stroke="black" cx="334.39" cy="-192" rx="65.79" ry="18"/>
<text text-anchor="middle" x="334.39" y="-188.3" font-family="Times,serif" font-size="14.00">Enrichment</text>
</g>
<!-- Mine&#45;&gt;Enrichment -->
<g id="edge6" class="edge">
<title>Mine&#45;&gt;Enrichment</title>
<path fill="none" stroke="black" d="M334.39,-260.8C334.39,-249.16 334.39,-233.55 334.39,-220.24"/>
<polygon fill="black" stroke="black" points="337.89,-220.18 334.39,-210.18 330.89,-220.18 337.89,-220.18"/>
<text text-anchor="middle" x="356.39" y="-231.8" font-family="Times,serif" font-size="14.00">nat_u </text>
</g>
<!-- Otr_fuel_source -->
<g id="node4" class="node">
<title>Otr_fuel_source</title>
<ellipse fill="none" stroke="black" cx="685.39" cy="-279" rx="83.39" ry="18"/>
<text text-anchor="middle" x="685.39" y="-275.3" font-family="Times,serif" font-size="14.00">Otr_fuel_source</text>
</g>
<!-- OtrEnrichment -->
<g id="node6" class="node">
<title>OtrEnrichment</title>
<ellipse fill="none" stroke="black" cx="685.39" cy="-192" rx="81.49" ry="18"/>
<text text-anchor="middle" x="685.39" y="-188.3" font-family="Times,serif" font-size="14.00">OtrEnrichment</text>
</g>
<!-- Otr_fuel_source&#45;&gt;OtrEnrichment -->
<g id="edge7" class="edge">
<title>Otr_fuel_source&#45;&gt;OtrEnrichment</title>
<path fill="none" stroke="black" d="M685.39,-260.8C685.39,-249.16 685.39,-233.55 685.39,-220.24"/>
<polygon fill="black" stroke="black" points="688.89,-220.18 685.39,-210.18 681.89,-220.18 688.89,-220.18"/>
<text text-anchor="middle" x="706.39" y="-231.8" font-family="Times,serif" font-size="14.00">otr_u </text>
</g>
<!-- Storage -->
<g id="node7" class="node">
<title>Storage</title>
<ellipse fill="none" stroke="black" cx="438.39" cy="-18" rx="47.39" ry="18"/>
<text text-anchor="middle" x="438.39" y="-14.3" font-family="Times,serif" font-size="14.00">Storage</text>
</g>
<!-- Enrichment&#45;&gt;Storage -->
<g id="edge12" class="edge">
<title>Enrichment&#45;&gt;Storage</title>
<path fill="none" stroke="black" d="M279.42,-182.06C210.33,-168.46 105.46,-138.56 146.39,-87 175.26,-50.64 305.64,-31.94 382.08,-23.94"/>
<polygon fill="black" stroke="black" points="382.89,-27.37 392.49,-22.88 382.18,-20.41 382.89,-27.37"/>
<text text-anchor="middle" x="164.39" y="-101.3" font-family="Times,serif" font-size="14.00">tails </text>
</g>
<!-- Base_Reactor -->
<g id="node8" class="node">
<title>Base_Reactor</title>
<ellipse fill="none" stroke="black" cx="264.39" cy="-105" rx="73.39" ry="18"/>
<text text-anchor="middle" x="264.39" y="-101.3" font-family="Times,serif" font-size="14.00">Base_Reactor</text>
</g>
<!-- Enrichment&#45;&gt;Base_Reactor -->
<g id="edge3" class="edge">
<title>Enrichment&#45;&gt;Base_Reactor</title>
<path fill="none" stroke="black" d="M307.86,-175.41C300.21,-169.99 292.34,-163.39 286.39,-156 280.81,-149.07 276.37,-140.5 272.98,-132.42"/>
<polygon fill="black" stroke="black" points="276.2,-131.05 269.35,-122.96 269.66,-133.55 276.2,-131.05"/>
<text text-anchor="middle" x="323.39" y="-144.8" font-family="Times,serif" font-size="14.00">fresh_uox </text>
</g>
<!-- Base_Pref_Reactor -->
<g id="node9" class="node">
<title>Base_Pref_Reactor</title>
<ellipse fill="none" stroke="black" cx="453.39" cy="-105" rx="97.48" ry="18"/>
<text text-anchor="middle" x="453.39" y="-101.3" font-family="Times,serif" font-size="14.00">Base_Pref_Reactor</text>
</g>
<!-- Enrichment&#45;&gt;Base_Pref_Reactor -->
<g id="edge1" class="edge">
<title>Enrichment&#45;&gt;Base_Pref_Reactor</title>
<path fill="none" stroke="black" d="M351.7,-174.54C362.87,-164.32 377.96,-151.22 392.39,-141 399.05,-136.29 406.38,-131.65 413.59,-127.37"/>
<polygon fill="black" stroke="black" points="415.69,-130.2 422.59,-122.16 412.18,-124.14 415.69,-130.2"/>
<text text-anchor="middle" x="429.39" y="-144.8" font-family="Times,serif" font-size="14.00">fresh_uox </text>
</g>
<!-- EVER_Update_Reactor -->
<g id="node10" class="node">
<title>EVER_Update_Reactor</title>
<ellipse fill="none" stroke="black" cx="685.39" cy="-105" rx="116.18" ry="18"/>
<text text-anchor="middle" x="685.39" y="-101.3" font-family="Times,serif" font-size="14.00">EVER_Update_Reactor</text>
</g>
<!-- Enrichment&#45;&gt;EVER_Update_Reactor -->
<g id="edge4" class="edge">
<title>Enrichment&#45;&gt;EVER_Update_Reactor</title>
<path fill="none" stroke="black" d="M387.21,-181.31C411.93,-175.69 441.38,-167.43 466.39,-156 477.16,-151.08 477.43,-145.47 488.39,-141 507.23,-133.32 550.05,-125.35 590.97,-118.95"/>
<polygon fill="black" stroke="black" points="591.69,-122.38 601.04,-117.4 590.62,-115.46 591.69,-122.38"/>
<text text-anchor="middle" x="525.39" y="-144.8" font-family="Times,serif" font-size="14.00">fresh_uox </text>
</g>
<!-- OtrEnrichment&#45;&gt;Storage -->
<g id="edge13" class="edge">
<title>OtrEnrichment&#45;&gt;Storage</title>
<path fill="none" stroke="black" d="M727.95,-176.54C774.98,-158.28 840.39,-124.64 810.39,-87 772.04,-38.87 590.37,-24.76 495.85,-20.66"/>
<polygon fill="black" stroke="black" points="495.73,-17.15 485.6,-20.24 495.44,-24.15 495.73,-17.15"/>
<text text-anchor="middle" x="835.39" y="-101.3" font-family="Times,serif" font-size="14.00">tails </text>
</g>
<!-- OtrEnrichment&#45;&gt;Base_Pref_Reactor -->
<g id="edge2" class="edge">
<title>OtrEnrichment&#45;&gt;Base_Pref_Reactor</title>
<path fill="none" stroke="black" d="M651.12,-175.55C627.53,-165.18 595.35,-151.54 566.39,-141 549.45,-134.83 530.85,-128.78 513.71,-123.49"/>
<polygon fill="black" stroke="black" points="514.39,-120.04 503.81,-120.47 512.35,-126.74 514.39,-120.04"/>
<text text-anchor="middle" x="637.39" y="-144.8" font-family="Times,serif" font-size="14.00">fresh_otr </text>
</g>
<!-- OtrEnrichment&#45;&gt;EVER_Update_Reactor -->
<g id="edge5" class="edge">
<title>OtrEnrichment&#45;&gt;EVER_Update_Reactor</title>
<path fill="none" stroke="black" d="M685.39,-173.8C685.39,-162.16 685.39,-146.55 685.39,-133.24"/>
<polygon fill="black" stroke="black" points="688.89,-133.18 685.39,-123.18 681.89,-133.18 688.89,-133.18"/>
<text text-anchor="middle" x="720.39" y="-144.8" font-family="Times,serif" font-size="14.00">fresh_otr </text>
</g>
<!-- Base_Reactor&#45;&gt;Storage -->
<g id="edge10" class="edge">
<title>Base_Reactor&#45;&gt;Storage</title>
<path fill="none" stroke="black" d="M276.21,-86.84C284.57,-75.93 296.69,-62.34 310.39,-54 332.69,-40.42 360.33,-32.01 384.21,-26.84"/>
<polygon fill="black" stroke="black" points="385.08,-30.24 394.18,-24.83 383.69,-23.38 385.08,-30.24"/>
<text text-anchor="middle" x="345.89" y="-57.8" font-family="Times,serif" font-size="14.00">used_uox </text>
</g>
<!-- Base_Pref_Reactor&#45;&gt;Storage -->
<g id="edge8" class="edge">
<title>Base_Pref_Reactor&#45;&gt;Storage</title>
<path fill="none" stroke="black" d="M461.14,-86.63C464.43,-76.9 466.8,-64.62 463.39,-54 462.26,-50.45 460.61,-46.95 458.7,-43.62"/>
<polygon fill="black" stroke="black" points="461.62,-41.69 453.18,-35.28 455.78,-45.55 461.62,-41.69"/>
<text text-anchor="middle" x="505.39" y="-57.8" font-family="Times,serif" font-size="14.00">used_otr_u </text>
</g>
<!-- Base_Pref_Reactor&#45;&gt;Storage -->
<g id="edge9" class="edge">
<title>Base_Pref_Reactor&#45;&gt;Storage</title>
<path fill="none" stroke="black" d="M409.59,-88.83C401.15,-83.84 393.39,-77.36 388.39,-69 381.49,-57.44 389.68,-46.61 401.3,-38"/>
<polygon fill="black" stroke="black" points="403.33,-40.85 409.75,-32.42 399.47,-35.01 403.33,-40.85"/>
<text text-anchor="middle" x="423.89" y="-57.8" font-family="Times,serif" font-size="14.00">used_uox </text>
</g>
<!-- EVER_Update_Reactor&#45;&gt;Storage -->
<g id="edge11" class="edge">
<title>EVER_Update_Reactor&#45;&gt;Storage</title>
<path fill="none" stroke="black" d="M644.23,-88.12C617.59,-78.01 582.09,-64.81 550.39,-54 528.77,-46.62 504.6,-38.99 484.26,-32.75"/>
<polygon fill="black" stroke="black" points="485.2,-29.37 474.61,-29.8 483.15,-36.07 485.2,-29.37"/>
<text text-anchor="middle" x="626.89" y="-57.8" font-family="Times,serif" font-size="14.00">used_uox </text>
</g>
</g>
</svg>
